HIERARCHY
ROOT Hips
{
    OFFSET 0.000000 0.000000 0.000000
    CHANNELS 6 Xposition Yposition Zposition Zrotation Yrotation Xrotation
    JOINT LeftUpLeg
    {
        OFFSET 1.363060 -1.794630 0.839290
        CHANNELS 3 Zrotation Yrotation Xrotation
        JOINT LeftLeg
        {
            OFFSET 2.448110 -6.726130 0.000000
            CHANNELS 3 Zrotation Yrotation Xrotation
            JOINT LeftFoot
            {
                OFFSET 2.562200 -7.039589 0.000000
                CHANNELS 3 Zrotation Yrotation Xrotation
                JOINT LeftToeBase
                {
                    OFFSET 0.157640 -0.433110 2.322550
                    CHANNELS 3 Zrotation Yrotation Xrotation
                    End Site
                    {
                        OFFSET 0.000000 0.000000 0.000000
                    }
                }
            }
        }
    }
    JOINT RightUpLeg
    {
        OFFSET -1.305520 -1.794630 0.839290
        CHANNELS 3 Zrotation Yrotation Xrotation
        JOINT RightLeg
        {
            OFFSET -2.542530 -6.985549 0.000000
            CHANNELS 3 Zrotation Yrotation Xrotation
            JOINT RightFoot
            {
                OFFSET -2.568260 -7.056230 0.000000
                CHANNELS 3 Zrotation Yrotation Xrotation
                JOINT RightToeBase
                {
                    OFFSET -0.164730 -0.452590 2.363150
                    CHANNELS 3 Zrotation Yrotation Xrotation
                    End Site
                    {
                        OFFSET 0.000000 0.000000 0.000000
                    }
                }
            }
        }
    }
    JOINT Spine
    {
        OFFSET 0.028270 2.035590 -0.193380
        CHANNELS 3 Zrotation Yrotation Xrotation
        JOINT Spine1
        {
            OFFSET 0.056720 2.048850 -0.042750
            CHANNELS 3 Zrotation Yrotation Xrotation
            JOINT Neck1
            {
                OFFSET -0.054170 1.746240 0.172020
                CHANNELS 3 Zrotation Yrotation Xrotation
                JOINT Head
                {
                    OFFSET 0.104070 1.761360 -0.123970
                    CHANNELS 3 Zrotation Yrotation Xrotation
                    End Site
                    {
                        OFFSET 0.000000 0.000000 0.000000
                    }
                }
            }
            JOINT LeftShoulder
            {
                OFFSET 0.000000 0.000000 0.000000
                CHANNELS 3 Zrotation Yrotation Xrotation
                JOINT LeftArm
                {
                    OFFSET 3.362410 1.200890 -0.311210
                    CHANNELS 3 Zrotation Yrotation Xrotation
                    JOINT LeftForeArm
                    {
                        OFFSET 4.983000 -0.000000 -0.000000
                        CHANNELS 3 Zrotation Yrotation Xrotation
                        JOINT LeftHand
                        {
                            OFFSET 3.483560 -0.000000 -0.000000
                            CHANNELS 3 Zrotation Yrotation Xrotation
                            End Site
                            {
                                OFFSET 0.000000 0.000000 0.000000
                            }
                        }
                    }
                }
            }
            JOINT RightShoulder
            {
                OFFSET 0.000000 0.000000 0.000000
                CHANNELS 3 Zrotation Yrotation Xrotation
                JOINT RightArm
                {
                    OFFSET -3.136600 1.374050 -0.404650
                    CHANNELS 3 Zrotation Yrotation Xrotation
                    JOINT RightForeArm
                    {
                        OFFSET -5.241900 -0.000000 -0.000000
                        CHANNELS 3 Zrotation Yrotation Xrotation
                        JOINT RightHand
                        {
                            OFFSET -3.444170 -0.000000 -0.000000
                            CHANNELS 3 Zrotation Yrotation Xrotation
                            End Site
                            {
                                OFFSET 0.000000 0.000000 0.000000
                            }
                        }
                    }
                }
            }
        }
    }
}
MOTION
Frames: 7
Frame Time: 0.016667
21.946045 18.343039 -16.161739 -5.838250 -2.036660 25.587700 -18.274977 -6.249856 -34.195885 -21.821884 -31.004641 43.549126 5.649109 50.183540 -1.137723 -0.302198 0.641188 -2.425057 -0.122016 9.590663 -39.375359 6.498078 13.342033 23.183676 13.760143 -35.107471 -29.903337 -0.271780 -1.022859 -5.412354 1.270666 1.427907 14.032620 1.283029 2.056125 -14.247385 10.177698 -2.164202 37.745033 -12.217324 -4.068889 -36.429569 25.974468 -26.288372 -3.666012 9.807723 -39.897034 -9.076367 4.834282 -12.267136 -12.011039 -0.016779 -1.802918 -10.667211 -21.833387 25.547869 -1.382451 -14.928668 43.753120 -29.478575 3.935305 13.876040 6.504755 0.836285 2.713820 6.346231 
21.996946 18.332968 -15.854749 -5.437411 -0.786500 25.971621 -19.147295 -6.277058 -33.633644 -20.597412 -30.745663 42.910885 5.284272 47.874271 -2.034882 -0.287112 0.649120 -2.334055 -3.601704 11.000411 -38.565350 3.236168 5.187065 16.004652 15.902052 -29.750839 -28.549692 -0.180124 -0.664583 -6.602434 2.912618 1.099120 12.498812 1.241368 1.745516 -13.123867 7.579524 -4.696186 39.847275 -11.183195 -6.038958 -40.675430 24.682013 -25.023573 -2.794801 10.805799 -41.938999 -11.229885 4.661417 -12.488667 -10.763165 0.659621 -1.516443 -9.485384 -20.697109 25.407295 -0.155580 -16.797169 44.140297 -29.752005 3.523085 13.498950 7.439219 0.716893 2.492228 7.288356 
21.986065 18.346987 -15.662534 -4.796885 0.431351 26.042742 -19.654081 -6.709917 -32.758095 -22.068262 -32.524666 44.403648 5.983871 49.218937 -1.762347 -0.403436 1.062909 -3.325021 -4.927646 9.781613 -39.069839 1.683736 -0.489127 11.933840 17.615515 -25.998400 -27.490463 -0.552232 -2.212132 -6.200175 3.850243 1.021146 12.437944 1.174676 1.713882 -13.142864 6.387999 -5.933210 39.803814 -10.462802 -7.187538 -40.781162 24.797012 -24.922338 -3.164690 10.426140 -42.721649 -11.269322 4.832623 -13.182934 -10.785654 0.461547 -1.908845 -9.373862 -20.595516 25.618042 0.066925 -16.679464 43.334000 -29.786240 3.575155 13.244062 8.169506 1.006900 2.083815 8.023854 
21.972322 18.356039 -15.470627 -4.230624 1.491428 26.264936 -20.205471 -6.805157 -32.137783 -22.423208 -33.416546 44.927189 5.529036 48.874847 -2.044146 -0.485883 1.135930 -3.880782 -5.032073 7.182219 -40.636642 1.275790 -3.066100 10.549772 20.549479 -23.083042 -28.930824 -0.591493 -2.276886 -4.850664 4.729550 1.088012 12.258320 1.163364 1.786432 -13.070483 5.427226 -7.212516 39.576244 -10.020823 -8.446737 -40.873058 24.918358 -24.718102 -3.362201 10.344875 -43.477631 -11.607188 4.928455 -13.717085 -10.670172 0.406453 -1.941263 -9.155882 -20.461100 25.804136 0.186592 -16.512217 42.585670 -28.974722 3.164425 12.962274 8.089407 0.811458 1.855011 8.001121 
21.956026 18.363098 -15.280415 -3.708869 2.392510 26.329662 -20.803898 -6.626750 -31.367163 -22.465431 -34.084835 45.074738 5.531588 48.336113 -2.106487 -0.536695 1.073444 -4.163258 -4.458270 4.351271 -42.657547 1.981557 -2.890456 11.119694 20.907074 -24.785881 -30.867165 -0.592581 -2.226567 -4.049189 5.421958 1.136061 12.272061 1.270765 1.892877 -13.077494 4.749908 -8.412903 39.931423 -9.581004 -9.675335 -41.812820 24.966116 -24.582430 -3.530002 10.202428 -44.155888 -11.711262 4.955187 -13.951387 -10.361713 0.538743 -1.799269 -8.810308 -20.175041 25.972973 0.371207 -16.423357 42.041416 -29.494543 3.140275 12.738694 8.197277 -0.727681 1.810137 7.991866 
21.938528 18.371210 -15.087044 -3.187976 3.358037 26.320499 -21.627571 -6.156703 -30.552570 -21.699514 -34.444889 44.621502 5.362524 46.885494 -2.206165 -0.579486 1.240422 -4.518329 -3.639383 1.461051 -44.571178 2.983127 -4.068380 11.218175 21.064959 -26.155880 -31.843941 -0.675211 -2.475914 -3.138083 6.166032 1.082169 12.297467 1.315630 1.880137 -12.981356 4.065832 -9.203408 39.685764 -8.958119 -10.353603 -41.409637 25.079775 -24.394300 -3.595312 10.203513 -44.634270 -11.777370 4.851013 -14.172622 -9.982733 0.513391 -1.695590 -8.419220 -20.062283 25.968496 0.638320 -16.526522 41.589592 -32.134876 3.981701 12.476427 9.357464 -1.538206 1.634908 8.952670 
21.922499 18.366531 -14.887666 -2.599925 4.281483 26.497873 -22.001493 -6.472437 -29.585707 -21.540834 -34.932945 44.323189 5.231019 46.678822 -2.237126 -0.704394 1.174318 -5.260841 -2.741674 -1.229171 -46.772560 4.552068 -2.514196 12.902133 22.619936 -29.127007 -35.020432 -0.751113 -2.694926 -2.349303 6.722552 1.098374 12.101253 1.493182 1.904763 -13.029014 3.831876 -10.110048 39.933762 -8.802477 -11.278775 -41.869259 25.090767 -24.497179 -3.888351 9.851902 -45.178749 -11.473478 4.729037 -14.235491 -9.546275 0.405212 -1.929500 -8.011480 -19.747950 26.121628 0.656419 -15.832132 41.469917 -29.623146 3.133480 12.214536 8.448145 -2.021941 1.570993 8.156510 
